<svg id="Layer_1" data-name="Layer 1" xmlns="http://www.w3.org/2000/svg" viewBox="0 0 247.45 135.45"><defs><style>.cls-1{fill:#ba8a38;}.cls-2{fill:#231f20;}</style></defs><path class="cls-1" d="M29.49,115.67l-3.28,6.64H1.91L14.48,97.46l.21.5a39.92,39.92,0,0,0,14.8,17.71"/><path class="cls-1" d="M86.73,0,64.65,44.62c-1.15-.4-2.33-.74-3.51-1a40.62,40.62,0,0,0-19.4,0l11.63-23H0V0Z"/><path class="cls-2" d="M51.58,105.59a23.21,23.21,0,0,0,8.7-1.67,23.53,23.53,0,0,0,7.46-4.77v14.13a34.81,34.81,0,0,1-16.16,4A34.15,34.15,0,0,1,38,114.52a35.82,35.82,0,0,1-11.13-7.47A34.86,34.86,0,0,1,19.33,96a35.27,35.27,0,0,1,0-27.21,34.91,34.91,0,0,1,7.51-11.09A35.62,35.62,0,0,1,38,50.21a34,34,0,0,1,13.61-2.74,35,35,0,0,1,16.16,4V65.58a23.53,23.53,0,0,0-7.46-4.77,23.22,23.22,0,0,0-8.7-1.68,22.85,22.85,0,0,0-9.1,1.81A23.27,23.27,0,0,0,30.07,73.35a23.33,23.33,0,0,0,0,18,23.27,23.27,0,0,0,12.41,12.41,22.85,22.85,0,0,0,9.1,1.81"/><polygon class="cls-2" points="95.76 116.8 73.71 116.8 73.71 81.43 95.76 81.43 95.76 87.4 79.68 87.4 79.68 96.13 93.92 96.13 93.92 102.1 79.68 102.1 79.68 110.83 95.76 110.83 95.76 116.8"/><polygon class="cls-2" points="128.13 118.27 106.87 95.21 106.87 116.8 100.9 116.8 100.9 80.05 122.16 103.11 122.16 81.43 128.13 81.43 128.13 118.27"/><polygon class="cls-2" points="157.53 87.4 148.48 87.4 148.48 116.8 142.51 116.8 142.51 87.4 133.42 87.4 133.42 81.43 157.53 81.43 157.53 87.4"/><path class="cls-2" d="M181.09,91.77a4.18,4.18,0,0,0-.35-1.68,4.37,4.37,0,0,0-2.34-2.34,4.21,4.21,0,0,0-1.68-.35h-7.94v8.73h7.94a4.21,4.21,0,0,0,1.68-.35,4.42,4.42,0,0,0,2.34-2.32,4.12,4.12,0,0,0,.35-1.69m6.2,25H180.4l-7.35-14.7h-4.27v14.7h-6V81.43h13.91a10,10,0,0,1,4,.81,10.3,10.3,0,0,1,5.53,5.53,10,10,0,0,1,.81,4,10.46,10.46,0,0,1-.55,3.35A10.19,10.19,0,0,1,185,98a10.51,10.51,0,0,1-2.42,2.28,9.85,9.85,0,0,1-3.1,1.42Z"/><path class="cls-2" d="M209.06,104.85l-4.32-9.92-4.32,9.92Zm11.75,12h-6.52l-2.62-6H197.8l-2.61,6h-6.53l16.08-36.75Z"/><polygon class="cls-2" points="247.45 116.8 225.41 116.8 225.41 81.43 231.38 81.43 231.38 110.83 247.45 110.83 247.45 116.8"/><path class="cls-2" d="M213,135.45v-9.23h1.46l6.5,5.44c.22.18.42.35.59.51s.32.33.46.5c0-.52-.06-.89-.07-1.1s0-.38,0-.5v-4.85h1.93v9.23H222.4l-6.78-5.7c-.16-.15-.31-.27-.43-.39l-.34-.36c0,.28.05.55.07.81s0,.47,0,.66v5Zm-15.56,0,5.23-9.23h2.08l5.29,9.23h-2.41l-1.11-2h-5.86l-1.07,2Zm4.14-3.68h4l-2-3.76Zm-8-3.9v7.58H191.4v-7.58h-4.24v-1.65h10.65v1.65Zm-14.39,7.58v-9.23h2.14v7.5h6.93v1.73Zm-13-9.23v7.5h6.12v-7.5h2.15v7.05A2.44,2.44,0,0,1,174,135a2.74,2.74,0,0,1-1.83.45H166.3a2.69,2.69,0,0,1-1.81-.45,2.39,2.39,0,0,1-.47-1.73v-7.05Zm-18.73,9.23v-9.23h1.74l4.35,5.58,4.25-5.58h1.72v9.23h-2v-5.7a3.4,3.4,0,0,1,0-.42c0-.17,0-.36.05-.57-.11.24-.22.44-.3.59a4.41,4.41,0,0,1-.24.38l-3.47,4.62h-.42l-3.49-4.63c-.12-.18-.23-.34-.32-.5a3.19,3.19,0,0,1-.23-.45c0,.2,0,.37,0,.53s0,.3,0,.45v5.7Zm-22.48,0,5.23-9.23h2.07l5.3,9.23h-2.41l-1.11-2h-5.86l-1.08,2Zm4.13-3.68h4.06l-2-3.76ZM111,135.45v-9.23h2.15v3.58h6.71v-3.58H122v9.23h-2.16v-4h-6.71v4Zm-15.16,0v-9.23h5.94a5.78,5.78,0,0,1,3.91,1.19,4.23,4.23,0,0,1,1.37,3.37,5,5,0,0,1-.54,2.33,4,4,0,0,1-1.5,1.63,4.28,4.28,0,0,1-1.49.54,12.21,12.21,0,0,1-2.3.17ZM98,133.72h2.78a5.42,5.42,0,0,0,3.14-.69,2.66,2.66,0,0,0,.93-2.29,2.81,2.81,0,0,0-.77-2.14,3.16,3.16,0,0,0-2.27-.73H98Z"/></svg>